<?xml version="1.0" encoding="utf-8"?>
<!-- Generator: Adobe Illustrator 28.3.0, SVG Export Plug-In . SVG Version: 6.00 Build 0)  -->
<svg version="1.1" id="Layer_1" xmlns="http://www.w3.org/2000/svg" xmlns:xlink="http://www.w3.org/1999/xlink" x="0px" y="0px"
	 viewBox="0 0 128 195" style="enable-background:new 0 0 128 195;" xml:space="preserve">
<style type="text/css">
	.st0{fill:#F4F4F4;}
	.st1{opacity:0.2;enable-background:new    ;}
</style>
<rect class="st0" width="128" height="195"/>
<path class="st1" d="M105.89,47.19v83.79H34.67c-6.94,0-12.57,5.63-12.57,12.57V59.76c0-6.94,5.63-12.57,12.57-12.57H105.89z"/>
<path d="M105.89,43H34.67c-9.26,0-16.76,7.5-16.76,16.76v87.98c0,2.31,1.88,4.19,4.19,4.19h75.41c2.31,0,4.19-1.88,4.19-4.19
	c0-2.31-1.88-4.19-4.19-4.19H26.3c0-4.63,3.75-8.38,8.38-8.38h71.22c2.31,0,4.19-1.88,4.19-4.19V47.19
	C110.08,44.88,108.21,43,105.89,43z M101.7,126.79H34.67c-2.94,0-5.83,0.77-8.38,2.25V59.76c0-4.63,3.75-8.38,8.38-8.38h67.03
	V126.79z"/>
</svg>
